<?xml version="1.0" encoding="UTF-8" standalone="no"?>
<svg
   xmlns:dc="http://purl.org/dc/elements/1.1/"
   xmlns:cc="http://creativecommons.org/ns#"
   xmlns:rdf="http://www.w3.org/1999/02/22-rdf-syntax-ns#"
   xmlns:svg="http://www.w3.org/2000/svg"
   xmlns="http://www.w3.org/2000/svg"
   viewBox="0 0 577.33331 241.33333"
   height="241.33333"
   width="577.33331"
   xml:space="preserve"
   id="svg2"
   version="1.1"><metadata
     id="metadata8"><rdf:RDF><cc:Work
         rdf:about=""><dc:format>image/svg+xml</dc:format><dc:type
           rdf:resource="http://purl.org/dc/dcmitype/StillImage" /></cc:Work></rdf:RDF></metadata><defs
     id="defs6" /><g
     transform="matrix(1.3333333,0,0,-1.3333333,0,241.33333)"
     id="g10"><g
       transform="scale(0.1)"
       id="g12"><path
         id="path14"
         style="fill:#578526;fill-opacity:1;fill-rule:evenodd;stroke:none"
         d="m 2151.09,976.52 c -93.98,-0.348 -184.18,-8.86 -270.5,-25.5 -85.98,-16.68 -166.33,-40.508 -240.98,-71.532 -74.69,-30.968 -141.84,-67.808 -201.52,-110.468 -59.65,-43 -110,-90.5 -150.98,-142.5 68.32,56.332 147.3,105 236.99,145.98 89.65,41.328 187.35,73.16 293.01,95.512 105.98,22.34 217.3,33.668 333.98,33.976 116.68,-0.308 227.86,-11.636 333.52,-33.976 105.66,-22.352 203.32,-54.184 292.97,-95.512 89.69,-40.98 168.67,-89.648 237.03,-145.98 -41.02,52.312 -91.37,99.812 -151.02,142.5 -59.64,42.66 -126.83,79.5 -201.48,110.468 -74.69,31.024 -155,54.852 -241.02,71.532 -86.01,16.64 -176.01,25.152 -270,25.5 m -33.51,42.97 c -25.31,49.03 -57.5,88.52 -96.49,118.52 -39.33,30 -81.83,52.5 -127.5,67.5 -46.01,15.35 -91.48,25.35 -136.48,30 -45.35,4.65 -86.84,6.33 -124.53,5 -37.31,-1.33 -67.31,-3.52 -90,-6.49 -22.66,-3 -34.34,-4.68 -35,-5 -0.31,-0.35 -1.64,-8.51 -3.99,-24.53 -2.34,-15.66 -3.98,-37.97 -5,-66.99 -0.66,-28.98 1.33,-63.16 6.02,-102.5 3.32,-24.34 8.32,-46.172 15,-65.512 6.64,-18.976 13.83,-35.468 21.48,-49.488 7.35,-13.672 14.18,-24.648 20.51,-33.012 78.99,40 166.17,71.532 261.49,94.532 l -155,133.48 240.5,-115.98 c 66.33,11.33 134.85,17.97 205.51,20 0.98,0 2.15,0.16 3.48,0.47 M 1358.59,756.52 c -21.01,72.968 -31.68,149.14 -31.99,228.48 0,76.33 9.85,149.49 29.49,219.49 19.34,70 47,135.67 83.01,197.03 35.98,61.33 78.99,117 128.99,167 50,50 105.66,93 166.99,128.98 61.37,36.02 127.03,63.67 197.03,83.01 70,19.33 143.16,29.18 219.49,29.49 75.98,-0.31 148.99,-10.16 218.99,-29.49 70,-19.34 135.66,-46.99 196.99,-83.01 61.37,-35.98 117.03,-78.98 167.03,-128.98 50,-50 92.97,-105.67 128.98,-167 36.02,-61.36 63.68,-127.03 83.01,-197.03 19.65,-70 29.49,-143.16 29.49,-219.49 0,-79.34 -10.66,-155.512 -31.99,-228.48 -9.33,10.98 -19.18,21.64 -29.49,32 15.98,63 24.14,128.468 24.49,196.48 -0.35,72.66 -9.69,142.5 -28.01,209.49 -18.67,67.03 -45.15,129.69 -79.49,188.01 -34.33,58.67 -75.35,111.84 -123.01,159.49 -47.65,47.7 -100.82,88.87 -159.49,123.52 -58.67,34.33 -121.52,60.66 -188.51,78.98 -66.64,18.67 -136.33,28.17 -208.99,28.52 -72.65,-0.35 -142.5,-9.65 -209.49,-28.01 -67.03,-18.67 -129.84,-45.16 -188.52,-79.49 -58.32,-34.65 -111.48,-75.82 -159.49,-123.52 -47.65,-47.65 -88.67,-100.82 -123.01,-159.49 -34.33,-58.32 -60.82,-120.98 -79.49,-188.01 -18.36,-66.99 -27.65,-136.83 -28.01,-209.49 0.36,-68.012 8.52,-133.48 24.5,-196.48 -10.32,-10.36 -20.16,-21.02 -29.5,-32" /><path
         id="path16"
         style="fill:#759e2e;fill-opacity:1;fill-rule:evenodd;stroke:none"
         d="m 2183.09,1098.01 c 28,38.01 56.99,68.83 86.99,92.5 30,23.32 58.01,41.17 84.02,53.51 25.98,12 46.99,20.16 63.01,24.5 16.33,4.33 24.65,6.32 25,5.97 -18.01,52.03 -39.18,98.67 -63.52,140 -24.64,41.37 -50.15,77.35 -76.48,108.01 -26.37,31.02 -50.86,56.68 -73.52,76.99 -22.65,20.35 -41.17,35.51 -55.5,45.51 -13.99,10 -21.18,15 -21.49,15 -0.35,0 -7.65,-5 -21.99,-15 -14.34,-10 -32.85,-25.16 -55.51,-45.51 -23.01,-20.31 -47.65,-45.82 -74.02,-76.48 -25.98,-31.02 -51.33,-67.15 -75.98,-108.52 -24.69,-41.33 -46.01,-87.97 -64.02,-140 0.35,0.35 8.51,-1.64 24.53,-5.97 15.98,-4.03 36.84,-12 62.5,-24.03 25.98,-11.99 53.83,-29.49 83.48,-52.5 29.68,-23.32 58.67,-53.63 86.99,-90.97 l 33.51,295.5 32,-298.51 m 681.52,-263.99 c 10.66,48.992 15.98,99.5 15.98,151.492 -0.32,67.338 -8.99,131.988 -25.98,193.978 -17.34,62.03 -41.84,120 -73.52,174.03 -31.99,54.33 -70,103.47 -113.98,147.5 -44.34,44.33 -93.52,82.34 -147.5,113.98 -54.34,31.99 -112.5,56.68 -174.53,74.02 -61.99,17 -126.64,25.67 -193.99,25.98 -67.34,-0.31 -131.99,-8.98 -193.98,-25.98 -62.03,-17.34 -120,-41.83 -174.02,-73.51 -54.34,-31.99 -103.48,-70.16 -147.5,-114.49 -44.34,-44.03 -82.35,-93.17 -113.99,-147.5 -31.99,-54.34 -56.68,-112.35 -74.02,-174.03 -16.99,-61.99 -25.67,-126.64 -25.98,-193.978 0.31,-51.992 5.67,-102.5 15.98,-151.492 -5.98,-5 -11.84,-10 -17.5,-15 -12.66,53.64 -18.99,109.14 -18.99,166.492 0.36,69.328 9.34,135.818 27,199.488 17.65,63.67 42.85,123.36 75.5,179.02 32.66,55.67 71.68,106.33 117,152 45.66,45.31 96.32,84.33 151.99,116.99 55.66,33.01 115.35,58.16 179.02,75.51 63.67,17.65 130.16,26.64 199.49,26.99 69.34,-0.35 135.82,-9.34 199.5,-26.99 63.67,-17.66 123.36,-42.86 179.02,-75.51 55.98,-32.66 106.64,-71.68 151.99,-116.99 45.31,-45.36 84.49,-96.02 117.5,-152 32.66,-55.66 57.81,-115.35 75.51,-179.02 17.66,-63.67 26.48,-130.16 26.48,-199.488 0,-57.352 -6.17,-112.852 -18.51,-166.492 -5.98,5 -11.99,10 -17.97,15" /><path
         id="path18"
         style="fill:#99ca3a;fill-opacity:1;fill-rule:evenodd;stroke:none"
         d="m 2481.6,981.02 c 93.99,-23.008 180.16,-54.34 258.48,-94.032 6.37,8.364 13.16,19.532 20.51,33.524 7.65,13.668 14.84,30.148 21.52,49.488 6.64,19.02 11.64,40.66 15,65 4.65,39.34 6.64,73.52 5.98,102.5 -0.98,29.02 -2.66,51.52 -5,67.5 -2.35,15.66 -3.68,23.67 -3.99,24.02 -0.66,0.32 -12.34,2 -35,5 -22.65,2.97 -52.65,5.16 -90,6.49 -37.65,1.33 -79.18,-0.35 -124.49,-5 -45,-4.65 -90.51,-14.49 -136.52,-29.49 -45.67,-15.36 -88.17,-38.01 -127.5,-68.01 -38.99,-30 -71.18,-69.49 -96.49,-118.52 1.33,0 2.5,-0.15 3.48,-0.47 71.68,-2.03 141.01,-8.86 208.01,-20.5 l 241.52,116.99 -155.51,-134.49" /><path/></g></g></svg>