<?xml version="1.0" encoding="UTF-8" standalone="no"?>
<svg
   xmlns:dc="http://purl.org/dc/elements/1.1/"
   xmlns:cc="http://creativecommons.org/ns#"
   xmlns:rdf="http://www.w3.org/1999/02/22-rdf-syntax-ns#"
   xmlns:svg="http://www.w3.org/2000/svg"
   xmlns="http://www.w3.org/2000/svg"
   viewBox="0 0 577.33331 241.33333"
   height="241.33333"
   width="577.33331"
   xml:space="preserve"
   id="svg2"
   version="1.1"><metadata
     id="metadata8"><rdf:RDF><cc:Work
         rdf:about=""><dc:format>image/svg+xml</dc:format><dc:type
           rdf:resource="http://purl.org/dc/dcmitype/StillImage" /></cc:Work></rdf:RDF></metadata><defs
     id="defs6" /><g
     transform="matrix(1.3333333,0,0,-1.3333333,0,241.33333)"
     id="g10"><g
       transform="scale(0.1)"
       id="g12"><path
         id="path14"
         style="fill:#578526;fill-opacity:1;fill-rule:evenodd;stroke:none"
         d="m 2151.09,976.52 c -93.98,-0.348 -184.18,-8.86 -270.5,-25.5 -85.98,-16.68 -166.33,-40.508 -240.98,-71.532 -74.69,-30.968 -141.84,-67.808 -201.52,-110.468 -59.65,-43 -110,-90.5 -150.98,-142.5 68.32,56.332 147.3,105 236.99,145.98 89.65,41.328 187.35,73.16 293.01,95.512 105.98,22.34 217.3,33.668 333.98,33.976 116.68,-0.308 227.86,-11.636 333.52,-33.976 105.66,-22.352 203.32,-54.184 292.97,-95.512 89.69,-40.98 168.67,-89.648 237.03,-145.98 -41.02,52.312 -91.37,99.812 -151.02,142.5 -59.64,42.66 -126.83,79.5 -201.48,110.468 -74.69,31.024 -155,54.852 -241.02,71.532 -86.01,16.64 -176.01,25.152 -270,25.5 m -33.51,42.97 c -25.31,49.03 -57.5,88.52 -96.49,118.52 -39.33,30 -81.83,52.5 -127.5,67.5 -46.01,15.35 -91.48,25.35 -136.48,30 -45.35,4.65 -86.84,6.33 -124.53,5 -37.31,-1.33 -67.31,-3.52 -90,-6.49 -22.66,-3 -34.34,-4.68 -35,-5 -0.31,-0.35 -1.64,-8.51 -3.99,-24.53 -2.34,-15.66 -3.98,-37.97 -5,-66.99 -0.66,-28.98 1.33,-63.16 6.02,-102.5 3.32,-24.34 8.32,-46.172 15,-65.512 6.64,-18.976 13.83,-35.468 21.48,-49.488 7.35,-13.672 14.18,-24.648 20.51,-33.012 78.99,40 166.17,71.532 261.49,94.532 l -155,133.48 240.5,-115.98 c 66.33,11.33 134.85,17.97 205.51,20 0.98,0 2.15,0.16 3.48,0.47 M 1358.59,756.52 c -21.01,72.968 -31.68,149.14 -31.99,228.48 0,76.33 9.85,149.49 29.49,219.49 19.34,70 47,135.67 83.01,197.03 35.98,61.33 78.99,117 128.99,167 50,50 105.66,93 166.99,128.98 61.37,36.02 127.03,63.67 197.03,83.01 70,19.33 143.16,29.18 219.49,29.49 75.98,-0.31 148.99,-10.16 218.99,-29.49 70,-19.34 135.66,-46.99 196.99,-83.01 61.37,-35.98 117.03,-78.98 167.03,-128.98 50,-50 92.97,-105.67 128.98,-167 36.02,-61.36 63.68,-127.03 83.01,-197.03 19.65,-70 29.49,-143.16 29.49,-219.49 0,-79.34 -10.66,-155.512 -31.99,-228.48 -9.33,10.98 -19.18,21.64 -29.49,32 15.98,63 24.14,128.468 24.49,196.48 -0.35,72.66 -9.69,142.5 -28.01,209.49 -18.67,67.03 -45.15,129.69 -79.49,188.01 -34.33,58.67 -75.35,111.84 -123.01,159.49 -47.65,47.7 -100.82,88.87 -159.49,123.52 -58.67,34.33 -121.52,60.66 -188.51,78.98 -66.64,18.67 -136.33,28.17 -208.99,28.52 -72.65,-0.35 -142.5,-9.65 -209.49,-28.01 -67.03,-18.67 -129.84,-45.16 -188.52,-79.49 -58.32,-34.65 -111.48,-75.82 -159.49,-123.52 -47.65,-47.65 -88.67,-100.82 -123.01,-159.49 -34.33,-58.32 -60.82,-120.98 -79.49,-188.01 -18.36,-66.99 -27.65,-136.83 -28.01,-209.49 0.36,-68.012 8.52,-133.48 24.5,-196.48 -10.32,-10.36 -20.16,-21.02 -29.5,-32" /><path
         id="path16"
         style="fill:#759e2e;fill-opacity:1;fill-rule:evenodd;stroke:none"
         d="m 2183.09,1098.01 c 28,38.01 56.99,68.83 86.99,92.5 30,23.32 58.01,41.17 84.02,53.51 25.98,12 46.99,20.16 63.01,24.5 16.33,4.33 24.65,6.32 25,5.97 -18.01,52.03 -39.18,98.67 -63.52,140 -24.64,41.37 -50.15,77.35 -76.48,108.01 -26.37,31.02 -50.86,56.68 -73.52,76.99 -22.65,20.35 -41.17,35.51 -55.5,45.51 -13.99,10 -21.18,15 -21.49,15 -0.35,0 -7.65,-5 -21.99,-15 -14.34,-10 -32.85,-25.16 -55.51,-45.51 -23.01,-20.31 -47.65,-45.82 -74.02,-76.48 -25.98,-31.02 -51.33,-67.15 -75.98,-108.52 -24.69,-41.33 -46.01,-87.97 -64.02,-140 0.35,0.35 8.51,-1.64 24.53,-5.97 15.98,-4.03 36.84,-12 62.5,-24.03 25.98,-11.99 53.83,-29.49 83.48,-52.5 29.68,-23.32 58.67,-53.63 86.99,-90.97 l 33.51,295.5 32,-298.51 m 681.52,-263.99 c 10.66,48.992 15.98,99.5 15.98,151.492 -0.32,67.338 -8.99,131.988 -25.98,193.978 -17.34,62.03 -41.84,120 -73.52,174.03 -31.99,54.33 -70,103.47 -113.98,147.5 -44.34,44.33 -93.52,82.34 -147.5,113.98 -54.34,31.99 -112.5,56.68 -174.53,74.02 -61.99,17 -126.64,25.67 -193.99,25.98 -67.34,-0.31 -131.99,-8.98 -193.98,-25.98 -62.03,-17.34 -120,-41.83 -174.02,-73.51 -54.34,-31.99 -103.48,-70.16 -147.5,-114.49 -44.34,-44.03 -82.35,-93.17 -113.99,-147.5 -31.99,-54.34 -56.68,-112.35 -74.02,-174.03 -16.99,-61.99 -25.67,-126.64 -25.98,-193.978 0.31,-51.992 5.67,-102.5 15.98,-151.492 -5.98,-5 -11.84,-10 -17.5,-15 -12.66,53.64 -18.99,109.14 -18.99,166.492 0.36,69.328 9.34,135.818 27,199.488 17.65,63.67 42.85,123.36 75.5,179.02 32.66,55.67 71.68,106.33 117,152 45.66,45.31 96.32,84.33 151.99,116.99 55.66,33.01 115.35,58.16 179.02,75.51 63.67,17.65 130.16,26.64 199.49,26.99 69.34,-0.35 135.82,-9.34 199.5,-26.99 63.67,-17.66 123.36,-42.86 179.02,-75.51 55.98,-32.66 106.64,-71.68 151.99,-116.99 45.31,-45.36 84.49,-96.02 117.5,-152 32.66,-55.66 57.81,-115.35 75.51,-179.02 17.66,-63.67 26.48,-130.16 26.48,-199.488 0,-57.352 -6.17,-112.852 -18.51,-166.492 -5.98,5 -11.99,10 -17.97,15" /><path
         id="path18"
         style="fill:#99ca3a;fill-opacity:1;fill-rule:evenodd;stroke:none"
         d="m 2481.6,981.02 c 93.99,-23.008 180.16,-54.34 258.48,-94.032 6.37,8.364 13.16,19.532 20.51,33.524 7.65,13.668 14.84,30.148 21.52,49.488 6.64,19.02 11.64,40.66 15,65 4.65,39.34 6.64,73.52 5.98,102.5 -0.98,29.02 -2.66,51.52 -5,67.5 -2.35,15.66 -3.68,23.67 -3.99,24.02 -0.66,0.32 -12.34,2 -35,5 -22.65,2.97 -52.65,5.16 -90,6.49 -37.65,1.33 -79.18,-0.35 -124.49,-5 -45,-4.65 -90.51,-14.49 -136.52,-29.49 -45.67,-15.36 -88.17,-38.01 -127.5,-68.01 -38.99,-30 -71.18,-69.49 -96.49,-118.52 1.33,0 2.5,-0.15 3.48,-0.47 71.68,-2.03 141.01,-8.86 208.01,-20.5 l 241.52,116.99 -155.51,-134.49" /><path
         id="path20"
         style="fill:#598527;fill-opacity:1;fill-rule:nonzero;stroke:none"
         d="M -0.078125,491.68 H 137.73 c 16.879,0 32.969,-2.27 48.29,-6.719 15.308,-4.371 29.531,-10.582 42.652,-18.59 13.207,-7.93 25.199,-17.461 35.937,-28.601 10.7,-11.168 19.879,-23.551 27.5,-37.18 7.582,-13.68 13.442,-28.36 17.5,-44.07 4.063,-15.739 6.09,-32.032 6.09,-48.899 0,-17.312 -2.027,-33.871 -6.09,-49.691 -4.058,-15.739 -9.918,-30.551 -17.5,-44.379 -7.621,-13.86 -16.8,-26.481 -27.5,-37.813 -10.738,-11.25 -22.73,-20.937 -35.937,-29.058 -13.121,-8.051 -27.344,-14.219 -42.652,-18.59 -15.321,-4.379 -31.411,-6.57 -48.29,-6.57 H -0.078125 v 42.031 H 35.0781 V 449.34 H -0.078125 Z M 83.0508,449.34 V 163.551 h 57.5002 c 17.179,0 33.277,3.75 48.277,11.25 15.082,7.5 28.203,17.699 39.371,30.629 11.25,12.89 20.082,28.121 26.571,45.621 6.558,17.5 9.839,36.328 9.839,56.57 0,19.758 -3.281,38.32 -9.839,55.617 -6.489,17.274 -15.321,32.274 -26.571,45 -11.168,12.813 -24.289,22.852 -39.371,30.16 -15,7.262 -31.098,10.942 -48.277,10.942 z M 355.738,374.488 h 82.5 V 163.551 h 38.133 V 121.52 h -120.16 v 42.031 h 36.09 v 168.91 h -36.563 z m 27.973,89.532 c 0,4.261 0.82,8.281 2.5,12.031 1.758,3.828 4.059,7.187 6.879,10 2.89,2.898 6.289,5.199 10.148,6.879 3.953,1.761 8.133,2.66 12.5,2.66 4.262,0 8.282,-0.899 12.032,-2.66 3.832,-1.68 7.191,-3.981 10,-6.879 2.89,-2.813 5.199,-6.172 6.878,-10 1.762,-3.75 2.653,-7.77 2.653,-12.031 0,-4.372 -0.891,-8.551 -2.653,-12.5 -1.679,-3.86 -3.988,-7.301 -6.878,-10.309 -2.809,-3.051 -6.168,-5.43 -10,-7.191 -3.75,-1.68 -7.77,-2.5 -12.032,-2.5 -4.367,0 -8.547,0.82 -12.5,2.5 -3.859,1.761 -7.258,4.14 -10.148,7.191 -2.82,3.008 -5.121,6.449 -6.879,10.309 -1.68,3.949 -2.5,8.128 -2.5,12.5 z" /><path
         id="path22"
         style="fill:#598527;fill-opacity:1;fill-rule:nonzero;stroke:none"
         d="m 662.77,163.551 h 14.531 l -50.313,62.5 -49.058,-62.5 h 12.34 V 121.52 h -83.899 v 42.031 h 20.469 l 76.871,89.539 -72.191,79.371 h -25.622 v 42.027 h 83.903 v -42.027 h -9.531 l 46.718,-60 47.032,60 h -12.18 v 42.027 h 84.058 V 332.461 H 724.18 l -71.559,-82.5 75.617,-86.41 H 746.84 V 121.52 h -84.07 z" /><path
         id="path24"
         style="fill:#598527;fill-opacity:1;fill-rule:nonzero;stroke:none"
         d="m 827.34,242.148 c 0,-7.187 0.512,-13.75 1.57,-19.687 1.129,-5.941 2.649,-11.563 4.531,-16.871 6.008,-16.371 15.661,-28.68 28.899,-36.879 13.32,-8.242 28.359,-12.34 45.16,-12.34 13.121,0 25.859,1.789 38.281,5.469 12.5,3.75 25.629,9.531 39.379,17.34 l 18.28,-31.09 c -16.678,-11.371 -33.401,-19.809 -50.159,-25.32 -16.679,-5.5 -34.062,-8.282 -52.191,-8.282 -17.11,0 -32.93,2.813 -47.5,8.442 -14.61,5.699 -27.141,14.218 -37.649,25.468 -10.429,11.25 -18.601,25.231 -24.531,42.032 -5.941,16.761 -8.91,36.289 -8.91,58.59 0,18.011 2.5,35.039 7.5,51.101 5.078,16.008 12.66,30.039 22.66,42.027 10,11.954 22.379,21.442 37.18,28.442 14.769,6.949 32.039,10.461 51.719,10.461 19.062,0 34.921,-2.93 47.66,-8.75 12.812,-5.742 23.203,-13.391 31.25,-22.961 8.121,-9.5 14.261,-20.32 18.441,-32.5 4.14,-12.192 7.03,-24.649 8.59,-37.352 0.82,-6.168 1.33,-12.418 1.56,-18.75 0.32,-6.359 0.47,-12.578 0.47,-18.59 z m 71.101,100.782 c -10.632,0 -19.921,-1.52 -27.82,-4.532 -7.812,-3.046 -14.492,-7.347 -20,-12.968 -5.543,-5.551 -9.961,-12.418 -13.281,-20.629 -3.36,-8.121 -5.86,-17.262 -7.5,-27.34 h 131.101 c -0.632,9.449 -2.152,18.16 -4.531,26.09 -2.43,8.008 -6.058,14.929 -10.941,20.789 -4.809,5.93 -11.059,10.5 -18.75,13.75 -7.617,3.199 -17.028,4.84 -28.278,4.84 z" /><path
         id="path26"
         style="fill:#598527;fill-opacity:1;fill-rule:nonzero;stroke:none"
         d="m 1217.58,306.52 c 0,6.878 -1.64,12.699 -4.85,17.5 -3.12,4.769 -7.26,8.679 -12.34,11.718 -5,3.012 -10.62,5.203 -16.87,6.563 -6.18,1.449 -12.15,2.187 -17.97,2.187 -6.57,0 -12.58,-0.777 -17.97,-2.34 -5.43,-1.488 -10.12,-3.597 -14.06,-6.41 -3.87,-2.726 -6.96,-6.047 -9.22,-10 -2.19,-3.976 -3.28,-8.398 -3.28,-13.277 0,-8.441 2.53,-15.16 7.65,-20.16 5.2,-5 13.83,-9.602 25.94,-13.75 l 48.44,-17.18 c 20.82,-6.992 36.01,-16.531 45.62,-28.601 9.69,-11.989 14.53,-26.36 14.53,-43.122 0,-11.25 -2.26,-21.558 -6.72,-30.937 -4.49,-9.371 -10.86,-17.34 -19.06,-23.91 -8.24,-6.563 -18.12,-11.68 -29.69,-15.313 -11.56,-3.629 -24.45,-5.468 -38.59,-5.468 -19.69,0 -35.74,3.128 -48.12,9.378 -12.31,6.332 -21.8,14.723 -28.44,25.153 h -25.47 v 42.039 h 50.62 c 0,-7 1.45,-12.969 4.38,-17.969 3.01,-4.922 7.03,-8.91 12.03,-12.031 5,-3.129 10.63,-5.43 16.88,-6.879 6.25,-1.481 12.65,-2.191 19.21,-2.191 6.25,0 12.27,0.781 18.13,2.351 5.94,1.559 11.13,3.828 15.62,6.867 4.46,3.012 8.01,6.602 10.63,10.782 2.58,4.261 3.91,9.101 3.91,14.531 0,8.129 -2.66,15 -7.97,20.629 -5.32,5.699 -14.34,10.859 -27.03,15.468 l -48.29,17.973 c -19.68,7.07 -34.33,15.969 -43.9,26.719 -9.49,10.82 -14.22,24.41 -14.22,40.781 0,10.699 1.95,20.617 5.94,29.68 4.06,9.148 9.84,17.039 17.34,23.597 7.58,6.563 16.8,11.723 27.66,15.473 10.93,3.75 23.43,5.617 37.5,5.617 18,0 33.12,-2.578 45.31,-7.648 12.26,-5 23.28,-13.602 32.97,-25.789 h 23.75 V 306.52 Z" /><path
         id="path28"
         style="fill:#598527;fill-opacity:1;fill-rule:nonzero;stroke:none"
         d="m 1421.17,501.371 h 82.03 v -337.82 h 38.13 V 121.52 h -120.16 v 42.031 h 36.56 v 295.937 h -36.56 z" /><path
         id="path30"
         style="fill:#598527;fill-opacity:1;fill-rule:nonzero;stroke:none"
         d="m 1734.88,144.961 c -9.61,-8.981 -20.23,-16.332 -31.87,-22.031 -11.68,-5.629 -24.92,-8.442 -39.69,-8.442 -12.42,0 -23.75,1.992 -34.06,5.942 -10.31,3.832 -19.22,9.101 -26.72,15.781 -7.5,6.758 -13.36,14.609 -17.5,23.59 -4.18,8.949 -6.25,18.48 -6.25,28.597 0,10.704 1.56,20.231 4.69,28.59 3.2,8.321 7.5,15.512 12.81,21.563 5.31,6.14 11.48,11.289 18.59,15.469 7.07,4.14 14.46,7.5 22.19,10 7.7,2.5 15.55,4.261 23.59,5.32 8.13,1.012 15.82,1.558 23.13,1.558 11.76,0 21.6,-0.386 29.53,-1.097 8.01,-0.742 15.23,-1.711 21.72,-2.961 l 0.31,20.781 c 0,8.828 -1.33,16.559 -3.9,23.117 -2.62,6.641 -6.33,12.114 -11.1,16.41 -4.69,4.372 -10.31,7.582 -16.87,9.692 -6.57,2.07 -13.91,3.121 -22.03,3.121 -7.74,0 -15.08,-0.551 -22.04,-1.563 -6.99,-1.058 -13.55,-2.457 -19.68,-4.218 -6.06,-1.68 -11.68,-3.59 -16.88,-5.782 -5.12,-2.187 -9.45,-4.488 -12.97,-6.878 l -14.84,31.41 c 5.94,3.949 12.5,7.582 19.69,10.941 7.18,3.32 14.68,6.129 22.5,8.43 7.89,2.39 15.97,4.258 24.22,5.629 8.2,1.449 16.32,2.191 24.37,2.191 14.57,0 27.7,-1.801 39.38,-5.32 11.75,-3.43 21.71,-8.86 29.84,-16.25 8.2,-7.301 14.53,-16.641 18.91,-27.961 4.37,-11.25 6.56,-24.809 6.56,-40.629 l -0.31,-126.41 h 28.12 V 121.52 h -73.44 z m -61.56,7.5 c 6.02,0 12.07,0.699 18.13,2.187 6.01,1.563 11.71,3.59 17.03,6.09 5.39,2.5 10.35,5.391 14.84,8.75 4.57,3.321 8.44,6.762 11.56,10.313 l 0.16,57.187 h -52.66 c -8.75,0 -16.79,-1.008 -24.06,-2.968 -7.3,-1.872 -13.59,-4.68 -18.91,-8.43 -5.23,-3.75 -9.29,-8.442 -12.18,-14.07 -2.93,-5.54 -4.38,-11.829 -4.38,-18.899 0,-6.68 1.17,-12.5 3.6,-17.5 2.5,-5 5.93,-9.18 10.31,-12.5 4.45,-3.359 9.76,-5.902 15.94,-7.66 6.25,-1.68 13.12,-2.5 20.62,-2.5 z" /><path
         id="path32"
         style="fill:#598527;fill-opacity:1;fill-rule:nonzero;stroke:none"
         d="m 2026.13,163.551 h 35.63 V 279.02 c 0,19.378 -4.96,34.07 -14.85,44.07 -9.8,10 -23.9,15 -42.34,15 -10.55,0 -21.17,-2.578 -31.87,-7.66 -10.75,-5 -20.94,-11.25 -30.63,-18.75 V 163.551 h 35.78 V 121.52 h -118.28 v 42.031 h 35.16 v 168.91 h -35.16 v 42.027 h 80.63 v -29.84 h 0.46 c 5.39,4.692 11.14,9.141 17.19,13.442 6.13,4.25 12.54,7.89 19.22,10.93 6.64,3.128 13.59,5.55 20.78,7.351 7.27,1.75 14.92,2.649 22.97,2.649 13.44,0 25.63,-1.872 36.56,-5.622 10.94,-3.668 20.2,-9.339 27.82,-17.027 7.57,-7.621 13.47,-17.422 17.65,-29.383 4.14,-11.988 6.25,-26.09 6.25,-42.34 V 163.551 h 35.16 V 121.52 h -118.13 z" /><path
         id="path34"
         style="fill:#598527;fill-opacity:1;fill-rule:nonzero;stroke:none"
         d="m 2342.77,501.371 h 79.85 v -337.82 h 37.03 V 121.52 h -82.5 v 20.781 c -8.13,-8.352 -17.58,-14.84 -28.28,-19.531 -10.75,-4.571 -22.93,-6.872 -36.57,-6.872 -17.1,0 -33.04,2.973 -47.81,8.903 -14.69,5.937 -27.46,14.609 -38.28,26.097 -10.86,11.442 -19.33,25.512 -25.47,42.192 -6.05,16.75 -9.06,35.859 -9.06,57.34 0,19.57 2.89,37.34 8.75,53.281 5.82,16.019 14.1,29.73 24.84,41.09 10.82,11.328 23.79,20.16 38.91,26.41 15.08,6.25 31.91,9.379 50.47,9.379 12.19,0 23.32,-1.371 33.44,-4.07 10.07,-2.731 19.76,-7.418 29.06,-14.059 v 97.027 h -34.38 z M 2318.09,155.43 c 13.51,0 24.84,1.949 33.9,5.941 9.14,4.059 17.54,10.039 25.16,17.969 v 141.711 c -8.13,6.758 -17.5,11.719 -28.13,14.847 -10.54,3.122 -21.32,4.692 -32.34,4.692 -10.74,0 -20.86,-2.039 -30.31,-6.102 -9.49,-3.976 -17.78,-9.797 -24.85,-17.5 -7.11,-7.609 -12.65,-16.949 -16.72,-27.968 -4.06,-11.051 -6.09,-23.75 -6.09,-38.122 0,-15.628 1.91,-29.378 5.78,-41.25 3.95,-11.878 9.42,-21.878 16.41,-30 7.07,-8.046 15.47,-14.058 25.15,-18.128 9.77,-4.059 20.47,-6.09 32.04,-6.09 z" /><path
         id="path36"
         style="fill:#598527;fill-opacity:1;fill-rule:nonzero;stroke:none"
         d="m 2649.22,306.52 c 0,6.878 -1.64,12.699 -4.84,17.5 -3.13,4.769 -7.27,8.679 -12.35,11.718 -5,3.012 -10.62,5.203 -16.87,6.563 -6.18,1.449 -12.15,2.187 -17.97,2.187 -6.57,0 -12.58,-0.777 -17.97,-2.34 -5.43,-1.488 -10.12,-3.597 -14.06,-6.41 -3.87,-2.726 -6.96,-6.047 -9.22,-10 -2.19,-3.976 -3.28,-8.398 -3.28,-13.277 0,-8.441 2.54,-15.16 7.65,-20.16 5.2,-5 13.83,-9.602 25.94,-13.75 l 48.44,-17.18 c 20.82,-6.992 36.01,-16.531 45.62,-28.601 9.69,-11.989 14.53,-26.36 14.53,-43.122 0,-11.25 -2.26,-21.558 -6.72,-30.937 -4.49,-9.371 -10.85,-17.34 -19.06,-23.91 -8.24,-6.563 -18.12,-11.68 -29.68,-15.313 -11.57,-3.629 -24.46,-5.468 -38.6,-5.468 -19.69,0 -35.74,3.128 -48.12,9.378 -12.31,6.332 -21.8,14.723 -28.44,25.153 h -25.47 v 42.039 h 50.63 c 0,-7 1.44,-12.969 4.37,-17.969 3.01,-4.922 7.03,-8.91 12.03,-12.031 5,-3.129 10.63,-5.43 16.88,-6.879 6.25,-1.481 12.65,-2.191 19.22,-2.191 6.24,0 12.26,0.781 18.12,2.351 5.94,1.559 11.13,3.828 15.62,6.867 4.46,3.012 8.01,6.602 10.63,10.782 2.58,4.261 3.91,9.101 3.91,14.531 0,8.129 -2.66,15 -7.97,20.629 -5.31,5.699 -14.34,10.859 -27.03,15.468 l -48.28,17.973 c -19.69,7.07 -34.34,15.969 -43.91,26.719 -9.49,10.82 -14.22,24.41 -14.22,40.781 0,10.699 1.95,20.617 5.94,29.68 4.06,9.148 9.84,17.039 17.34,23.597 7.58,6.563 16.8,11.723 27.66,15.473 10.93,3.75 23.43,5.617 37.5,5.617 18.01,0 33.12,-2.578 45.31,-7.648 12.27,-5 23.28,-13.602 32.97,-25.789 h 23.75 V 306.52 Z" /><path
         id="path38"
         style="fill:#598527;fill-opacity:1;fill-rule:nonzero;stroke:none"
         d="m 2927.97,307.148 c -6.88,12.192 -15.59,21.09 -26.09,26.723 -10.43,5.699 -22.58,8.59 -36.41,8.59 -10.63,0 -20.59,-2.191 -29.85,-6.563 -9.29,-4.378 -17.34,-10.699 -24.21,-18.91 -6.88,-8.117 -12.35,-18.039 -16.41,-29.687 -3.98,-11.563 -5.94,-24.492 -5.94,-38.75 0,-14.172 1.96,-26.992 5.94,-38.43 4.06,-11.371 9.57,-21.101 16.56,-29.223 6.96,-8.046 15.04,-14.218 24.22,-18.597 9.14,-4.289 19.06,-6.403 29.69,-6.403 15.62,0 29.22,3.793 40.78,11.403 11.56,7.578 20.78,18.679 27.66,33.289 l 37.5,-18.442 c -4.93,-10.429 -10.94,-19.808 -18.13,-28.128 -7.11,-8.36 -15.16,-15.43 -24.22,-21.25 -9.06,-5.86 -19.02,-10.309 -29.84,-13.43 -10.74,-3.211 -22.15,-4.852 -34.22,-4.852 -17.62,0 -33.87,3.282 -48.75,9.852 -14.92,6.558 -27.77,15.781 -38.59,27.648 -10.86,11.883 -19.3,26.024 -25.32,42.5 -5.93,16.453 -8.9,34.461 -8.9,54.063 0,19.461 3.16,37.429 9.53,53.91 6.33,16.449 15.04,30.551 26.09,42.34 11.02,11.758 23.95,20.98 38.75,27.66 14.89,6.641 30.78,10 47.66,10 15.94,0 31.01,-2.77 45.31,-8.281 14.26,-5.551 26.76,-13.91 37.5,-25.16 h 25.63 v -41.872 z" /><path
         id="path40"
         style="fill:#598527;fill-opacity:1;fill-rule:nonzero;stroke:none"
         d="m 3167.5,144.961 c -9.61,-8.981 -20.23,-16.332 -31.88,-22.031 -11.67,-5.629 -24.92,-8.442 -39.68,-8.442 -12.42,0 -23.75,1.992 -34.06,5.942 -10.32,3.832 -19.22,9.101 -26.72,15.781 -7.5,6.758 -13.36,14.609 -17.5,23.59 -4.18,8.949 -6.25,18.48 -6.25,28.597 0,10.704 1.56,20.231 4.68,28.59 3.21,8.321 7.5,15.512 12.82,21.563 5.31,6.14 11.48,11.289 18.59,15.469 7.07,4.14 14.45,7.5 22.19,10 7.69,2.5 15.54,4.261 23.59,5.32 8.13,1.012 15.82,1.558 23.13,1.558 11.75,0 21.6,-0.386 29.53,-1.097 8.01,-0.742 15.23,-1.711 21.72,-2.961 l 0.31,20.781 c 0,8.828 -1.33,16.559 -3.91,23.117 -2.61,6.641 -6.33,12.114 -11.09,16.41 -4.69,4.372 -10.31,7.582 -16.88,9.692 -6.56,2.07 -13.9,3.121 -22.03,3.121 -7.73,0 -15.08,-0.551 -22.03,-1.563 -6.99,-1.058 -13.55,-2.457 -19.69,-4.218 -6.05,-1.68 -11.68,-3.59 -16.87,-5.782 -5.12,-2.187 -9.45,-4.488 -12.97,-6.878 l -14.84,31.41 c 5.93,3.949 12.5,7.582 19.68,10.941 7.19,3.32 14.69,6.129 22.5,8.43 7.89,2.39 15.98,4.258 24.22,5.629 8.21,1.449 16.33,2.191 24.38,2.191 14.57,0 27.69,-1.801 39.37,-5.32 11.76,-3.43 21.72,-8.86 29.85,-16.25 8.2,-7.301 14.53,-16.641 18.9,-27.961 4.38,-11.25 6.56,-24.809 6.56,-40.629 l -0.31,-126.41 h 28.13 V 121.52 h -73.44 z m -61.56,7.5 c 6.01,0 12.07,0.699 18.12,2.187 6.02,1.563 11.72,3.59 17.03,6.09 5.39,2.5 10.36,5.391 14.85,8.75 4.57,3.321 8.44,6.762 11.56,10.313 l 0.16,57.187 H 3115 c -8.75,0 -16.8,-1.008 -24.06,-2.968 -7.31,-1.872 -13.6,-4.68 -18.91,-8.43 -5.23,-3.75 -9.3,-8.442 -12.19,-14.07 -2.93,-5.54 -4.37,-11.829 -4.37,-18.899 0,-6.68 1.17,-12.5 3.59,-17.5 2.5,-5 5.94,-9.18 10.32,-12.5 4.45,-3.359 9.76,-5.902 15.93,-7.66 6.25,-1.68 13.13,-2.5 20.63,-2.5 z" /><path
         id="path42"
         style="fill:#598527;fill-opacity:1;fill-rule:nonzero;stroke:none"
         d="m 3282.19,374.488 h 80.62 v -21.09 c 10.71,8.321 22.42,14.922 35.16,19.84 12.69,4.883 25.78,7.352 39.22,7.352 16.64,0 31.87,-3.129 45.62,-9.379 13.83,-6.172 25.78,-14.84 35.78,-26.09 10.08,-11.25 17.89,-24.769 23.44,-40.473 5.51,-15.628 8.28,-32.968 8.28,-52.027 0,-20.32 -3.12,-38.871 -9.37,-55.633 -6.17,-16.789 -14.77,-31.168 -25.78,-43.117 -10.94,-11.992 -23.99,-21.332 -39.07,-27.973 -15.11,-6.636 -31.71,-10 -49.84,-10 -12.81,0 -24.3,1.372 -34.37,4.063 -10,2.699 -19.54,6.129 -28.6,10.309 V 48.5508 h 39.53 V 6.51953 H 3282.66 V 48.5508 h 34.68 V 332.461 h -35.15 z m 143.12,-33.898 c -11.79,0 -23.08,-2.43 -33.9,-7.192 -10.75,-4.687 -20.12,-11.207 -28.13,-19.527 V 176.988 c 5.39,-5.539 13.13,-10.539 23.13,-15 10,-4.367 22.42,-6.558 37.34,-6.558 10.39,0 20.39,2.031 30,6.09 9.69,4.07 18.16,10.082 25.47,18.128 7.26,8.122 13.12,18.122 17.5,30 4.45,11.872 6.72,25.622 6.72,41.25 0,14.372 -2.11,27.071 -6.25,38.122 -4.18,11.019 -9.81,20.359 -16.88,27.968 -7.11,7.703 -15.39,13.524 -24.84,17.5 -9.38,4.063 -19.45,6.102 -30.16,6.102 z" /><path
         id="path44"
         style="fill:#598527;fill-opacity:1;fill-rule:nonzero;stroke:none"
         d="m 3595,374.488 h 82.5 V 163.551 h 38.12 V 121.52 h -120.15 v 42.031 h 36.09 v 168.91 H 3595 Z m 27.97,89.532 c 0,4.261 0.82,8.281 2.5,12.031 1.76,3.828 4.06,7.187 6.87,10 2.89,2.898 6.29,5.199 10.16,6.879 3.95,1.761 8.12,2.66 12.5,2.66 4.26,0 8.28,-0.899 12.03,-2.66 3.83,-1.68 7.19,-3.981 10,-6.879 2.89,-2.813 5.2,-6.172 6.88,-10 1.75,-3.75 2.65,-7.77 2.65,-12.031 0,-4.372 -0.9,-8.551 -2.65,-12.5 -1.68,-3.86 -3.99,-7.301 -6.88,-10.309 -2.81,-3.051 -6.17,-5.43 -10,-7.191 -3.75,-1.68 -7.77,-2.5 -12.03,-2.5 -4.38,0 -8.55,0.82 -12.5,2.5 -3.87,1.761 -7.27,4.14 -10.16,7.191 -2.81,3.008 -5.11,6.449 -6.87,10.309 -1.68,3.949 -2.5,8.128 -2.5,12.5 z" /><path
         id="path46"
         style="fill:#598527;fill-opacity:1;fill-rule:nonzero;stroke:none"
         d="m 3923.59,163.551 h 35.63 V 279.02 c 0,19.378 -4.96,34.07 -14.84,44.07 -9.81,10 -23.91,15 -42.35,15 -10.55,0 -21.17,-2.578 -31.87,-7.66 -10.75,-5 -20.94,-11.25 -30.63,-18.75 V 163.551 h 35.78 V 121.52 h -118.28 v 42.031 h 35.16 v 168.91 h -35.16 v 42.027 h 80.63 v -29.84 h 0.46 c 5.4,4.692 11.14,9.141 17.19,13.442 6.14,4.25 12.54,7.89 19.22,10.93 6.64,3.128 13.59,5.55 20.78,7.351 7.27,1.75 14.92,2.649 22.97,2.649 13.44,0 25.63,-1.872 36.56,-5.622 10.94,-3.668 20.2,-9.339 27.82,-17.027 7.57,-7.621 13.47,-17.422 17.65,-29.383 4.14,-11.988 6.25,-26.09 6.25,-42.34 V 163.551 h 35.16 V 121.52 h -118.13 z" /><path
         id="path48"
         style="fill:#598527;fill-opacity:1;fill-rule:nonzero;stroke:none"
         d="m 4276.17,143.711 c -8.36,-8.75 -18.05,-15.59 -29.06,-20.473 -10.94,-4.879 -23.4,-7.34 -37.34,-7.34 -17.11,0 -33.05,2.973 -47.82,8.903 -14.68,5.937 -27.46,14.609 -38.28,26.097 -10.86,11.442 -19.33,25.512 -25.47,42.192 -6.05,16.75 -9.06,35.859 -9.06,57.34 0,19.57 2.89,37.34 8.75,53.281 5.82,16.019 14.1,29.73 24.84,41.09 10.82,11.328 23.79,20.16 38.91,26.41 15.08,6.25 31.91,9.379 50.47,9.379 12.69,0 24.1,-1.488 34.22,-4.379 10.19,-2.813 20.15,-7.731 29.84,-14.691 v 12.968 h 45.31 V 131.52 c 0,-40.0005 -9.49,-70.2309 -28.43,-90.7817 -18.99,-20.5078 -48.44,-30.77736 -88.44,-30.77736 -8.87,0 -18.09,0.69926 -27.66,2.02736 -9.61,1.25 -19.06,3.3633 -28.43,6.25 -9.38,2.8125 -18.52,6.4101 -27.35,10.7812 -8.87,4.3789 -17.03,9.7696 -24.53,16.1016 l 24.38,36.8672 c 4.88,-4.2578 10.46,-8.1602 16.71,-11.7188 6.33,-3.6289 13.05,-6.7187 20.16,-9.2187 7.19,-2.5 14.57,-4.4492 22.19,-5.9297 7.69,-1.4492 15.35,-2.1914 22.97,-2.1914 12.57,0 23.47,1.332 32.65,3.9101 9.14,2.6094 16.72,7.1797 22.66,13.75 5.94,6.5586 10.35,15.461 13.28,26.711 3.01,11.2502 4.53,25.5082 4.53,42.8202 z m -60.62,11.719 c 7.5,0 14.29,0.699 20.47,2.191 6.25,1.438 11.87,3.359 16.87,5.777 5.08,2.383 9.53,5.082 13.28,8.122 3.83,3.128 7.19,6.41 10,9.851 v 138.43 c -8.36,7.269 -17.93,12.539 -28.75,15.789 -10.86,3.32 -21.95,5 -33.28,5 -10.74,0 -20.86,-2.039 -30.31,-6.102 -9.49,-3.976 -17.78,-9.797 -24.85,-17.5 -7.1,-7.609 -12.65,-16.949 -16.71,-27.968 -4.07,-11.051 -6.1,-23.75 -6.1,-38.122 0,-15.628 1.92,-29.378 5.78,-41.25 3.95,-11.878 9.42,-21.878 16.41,-30 7.07,-8.046 15.47,-14.058 25.16,-18.128 9.76,-4.059 20.46,-6.09 32.03,-6.09 z" /></g></g></svg>